<?xml version="1.0" standalone="no"?>
<!DOCTYPE svg PUBLIC "-//W3C//DTD SVG 20010904//EN"
 "http://www.w3.org/TR/2001/REC-SVG-20010904/DTD/svg10.dtd">
<svg version="1.0" xmlns="http://www.w3.org/2000/svg"
 width="981.000000pt" height="943.000000pt" viewBox="0 0 981.000000 943.000000"
 preserveAspectRatio="xMidYMid meet">

<g transform="translate(0.000000,943.000000) scale(0.100000,-0.100000)"
fill="#000000" stroke="none">
<path d="M4920 8694 c-148 -29 -383 -134 -365 -164 3 -4 -1 -7 -9 -6 -22 2
-128 -94 -122 -111 3 -8 2 -11 -4 -8 -18 11 -145 -177 -135 -203 2 -7 1 -11
-4 -8 -13 8 -58 -138 -72 -233 -14 -100 -7 -217 20 -323 24 -93 60 -180 72
-172 5 3 6 -1 4 -8 -5 -13 68 -138 80 -138 4 0 3 5 -1 12 -4 7 -3 8 5 4 6 -4
9 -12 6 -17 -9 -13 81 -105 150 -154 164 -117 315 -166 505 -166 186 -1 345
48 493 150 88 61 192 165 181 182 -5 8 -3 9 6 4 10 -6 12 -4 7 9 -4 9 -3 15 2
11 23 -14 110 158 141 280 45 174 34 358 -31 525 -36 95 -124 234 -141 224 -6
-4 -8 -3 -5 3 18 29 -142 163 -270 227 -118 59 -199 78 -353 81 -74 2 -146 1
-160 -1z m177 -332 c22 -12 44 -18 48 -14 5 4 5 2 2 -4 -7 -12 16 -38 25 -29
3 3 11 -3 19 -12 13 -16 12 -17 -3 -4 -22 16 -24 -1 -3 -19 8 -7 18 -29 21
-50 6 -37 6 -37 43 -29 47 11 96 2 147 -27 67 -38 100 -108 84 -177 -7 -33 -6
-34 40 -50 117 -42 166 -171 96 -254 -13 -15 -24 -32 -25 -37 0 -6 -6 -11 -13
-12 -7 -2 -31 -10 -53 -18 -23 -9 -74 -15 -122 -16 l-83 0 0 -113 c0 -104 1
-113 19 -113 16 0 17 4 10 18 -12 23 -7 23 63 -4 61 -24 71 -36 38 -45 -11 -3
-17 -10 -13 -16 3 -6 1 -7 -5 -3 -6 4 -28 0 -48 -9 -41 -17 -53 -13 -34 10 11
13 7 15 -29 15 l-41 0 0 130 0 130 -105 0 -105 0 0 -94 c0 -90 1 -94 20 -89
22 6 24 14 -27 -114 -8 -21 -20 -15 -28 14 -3 15 -15 44 -25 66 -19 39 -19 39
0 34 19 -5 20 0 20 89 l0 94 -107 0 -108 0 0 -128 0 -127 -38 -3 c-32 -3 -36
-6 -26 -18 6 -8 10 -17 7 -19 -4 -4 -127 41 -137 51 -5 4 81 42 116 50 22 6
24 5 15 -13 -9 -15 -7 -19 9 -20 18 -2 19 6 19 112 l0 113 -87 4 c-57 2 -100
9 -122 20 -18 10 -38 15 -44 11 -5 -3 -7 -1 -4 4 4 6 -2 18 -13 28 -51 46 -63
155 -22 212 15 22 19 41 16 94 -3 64 -1 68 33 108 43 51 88 71 159 71 45 0 54
3 54 18 0 40 24 96 55 131 19 21 32 40 29 44 -3 3 0 8 7 13 8 4 10 3 5 -4 -9
-14 6 -16 20 -3 35 35 166 36 231 3z"/>
<path d="M5012 6938 c2 -25 8 -34 26 -36 19 -3 22 1 22 32 0 32 -3 36 -26 36
-23 0 -25 -3 -22 -32z"/>
<path d="M5010 6795 c0 -31 3 -35 25 -35 22 0 25 4 25 35 0 31 -3 35 -25 35
-22 0 -25 -4 -25 -35z"/>
<path d="M5010 6655 c0 -31 3 -35 25 -35 22 0 25 4 25 35 0 31 -3 35 -25 35
-22 0 -25 -4 -25 -35z"/>
<path d="M5017 6543 c-4 -3 -7 -19 -7 -35 0 -23 4 -28 25 -28 22 0 25 4 25 35
0 27 -4 35 -18 35 -10 0 -22 -3 -25 -7z"/>
<path d="M5017 6404 c-4 -4 -7 -20 -7 -36 0 -23 4 -28 26 -28 23 0 25 3 22 32
-3 31 -25 48 -41 32z"/>
<path d="M3027 6373 c-4 -3 -7 -19 -7 -35 0 -23 4 -28 25 -28 22 0 25 4 25 35
0 27 -4 35 -18 35 -10 0 -22 -3 -25 -7z"/>
<path d="M5010 6230 c0 -25 4 -30 25 -30 21 0 25 5 25 30 0 25 -4 30 -25 30
-21 0 -25 -5 -25 -30z"/>
<path d="M3027 6234 c-4 -4 -7 -20 -7 -36 0 -23 4 -28 26 -28 23 0 25 3 22 32
-3 31 -25 48 -41 32z"/>
<path d="M7220 6180 c0 -23 4 -30 20 -30 16 0 20 7 20 30 0 23 -4 30 -20 30
-16 0 -20 -7 -20 -30z"/>
<path d="M5010 6090 c0 -25 4 -30 25 -30 21 0 25 5 25 30 0 25 -4 30 -25 30
-21 0 -25 -5 -25 -30z"/>
<path d="M3026 6092 c-3 -3 -6 -18 -6 -34 0 -23 4 -28 26 -28 22 0 25 4 22 32
-3 29 -27 46 -42 30z"/>
<path d="M7220 6035 c0 -28 4 -35 20 -35 16 0 20 7 20 35 0 28 -4 35 -20 35
-16 0 -20 -7 -20 -35z"/>
<path d="M5010 5952 c0 -35 6 -41 31 -35 13 4 19 14 19 34 0 24 -4 29 -25 29
-21 0 -25 -5 -25 -28z"/>
<path d="M3020 5920 c0 -25 4 -30 25 -30 21 0 25 5 25 30 0 25 -4 30 -25 30
-21 0 -25 -5 -25 -30z"/>
<path d="M7220 5895 c0 -28 4 -35 20 -35 16 0 20 7 20 35 0 28 -4 35 -20 35
-16 0 -20 -7 -20 -35z"/>
<path d="M5012 5808 c2 -25 8 -33 23 -33 15 0 21 8 23 33 3 29 1 32 -23 32
-24 0 -26 -3 -23 -32z"/>
<path d="M3020 5780 c0 -25 4 -30 25 -30 21 0 25 5 25 30 0 25 -4 30 -25 30
-21 0 -25 -5 -25 -30z"/>
<path d="M7214 5776 c-10 -26 1 -51 24 -54 19 -3 22 1 22 32 0 30 -4 36 -20
36 -11 0 -23 -6 -26 -14z"/>
<path d="M5010 5665 c0 -31 3 -35 25 -35 22 0 25 4 25 35 0 31 -3 35 -25 35
-22 0 -25 -4 -25 -35z"/>
<path d="M3022 5638 c2 -25 8 -33 23 -33 15 0 21 8 23 33 3 29 1 32 -23 32
-24 0 -26 -3 -23 -32z"/>
<path d="M7210 5615 c0 -31 3 -35 25 -35 22 0 25 4 25 35 0 31 -3 35 -25 35
-22 0 -25 -4 -25 -35z"/>
<path d="M5010 5525 c0 -31 3 -35 25 -35 22 0 25 4 25 35 0 31 -3 35 -25 35
-22 0 -25 -4 -25 -35z"/>
<path d="M3022 5498 c2 -25 8 -33 23 -33 15 0 21 8 23 33 3 29 1 32 -23 32
-24 0 -26 -3 -23 -32z"/>
<path d="M7210 5475 c0 -31 3 -35 25 -35 22 0 25 4 25 35 0 31 -3 35 -25 35
-22 0 -25 -4 -25 -35z"/>
<path d="M3020 5355 c0 -31 3 -35 25 -35 22 0 25 4 25 35 0 31 -3 35 -25 35
-22 0 -25 -4 -25 -35z"/>
<path d="M7217 5364 c-4 -4 -7 -20 -7 -36 0 -23 4 -28 26 -28 23 0 25 3 22 32
-3 31 -25 48 -41 32z"/>
<path d="M3020 5215 c0 -31 3 -35 25 -35 22 0 25 4 25 35 0 31 -3 35 -25 35
-22 0 -25 -4 -25 -35z"/>
<path d="M7217 5224 c-4 -4 -7 -20 -7 -36 0 -23 4 -28 26 -28 23 0 25 3 22 32
-3 31 -25 48 -41 32z"/>
<path d="M3020 5076 c0 -32 3 -36 26 -36 23 0 25 3 22 33 -2 24 -8 33 -25 35
-20 3 -23 -1 -23 -32z"/>
<path d="M7210 5050 c0 -25 4 -30 25 -30 21 0 25 5 25 30 0 25 -4 30 -25 30
-21 0 -25 -5 -25 -30z"/>
<path d="M3027 4964 c-4 -4 -7 -20 -7 -36 0 -23 4 -28 26 -28 23 0 25 3 22 32
-3 31 -25 48 -41 32z"/>
<path d="M7210 4910 c0 -24 4 -30 23 -30 18 0 22 6 23 30 1 25 -2 30 -22 30
-20 0 -24 -5 -24 -30z"/>
<path d="M3026 4822 c-3 -3 -6 -18 -6 -34 0 -23 4 -28 26 -28 22 0 25 4 22 32
-3 29 -27 46 -42 30z"/>
<path d="M7212 4768 c2 -24 8 -33 21 -33 9 0 17 3 17 8 0 4 0 18 0 32 0 19 -5
25 -21 25 -17 0 -20 -5 -17 -32z"/>
<path d="M3070 4710 c0 -16 7 -20 35 -20 28 0 35 4 35 20 0 16 -7 20 -35 20
-28 0 -35 -4 -35 -20z"/>
<path d="M3210 4710 c0 -16 7 -20 35 -20 28 0 35 4 35 20 0 16 -7 20 -35 20
-28 0 -35 -4 -35 -20z"/>
<path d="M3354 4713 c2 -12 13 -19 34 -21 27 -3 32 0 32 17 0 17 -6 21 -34 21
-27 0 -34 -4 -32 -17z"/>
<path d="M3500 4710 c0 -11 2 -20 4 -20 2 0 6 9 9 20 3 11 1 20 -4 20 -5 0 -9
-9 -9 -20z"/>
<path d="M7210 4625 c0 -28 4 -35 20 -35 16 0 20 7 20 35 0 28 -4 35 -20 35
-16 0 -20 -7 -20 -35z"/>
<path d="M1762 4558 c2 -25 8 -33 23 -33 15 0 21 8 23 33 3 29 1 32 -23 32
-24 0 -26 -3 -23 -32z"/>
<path d="M7210 4485 c0 -28 4 -35 20 -35 16 0 20 7 20 35 0 28 -4 35 -20 35
-16 0 -20 -7 -20 -35z"/>
<path d="M1760 4414 c0 -31 3 -35 23 -32 17 2 23 11 25 36 3 29 1 32 -22 32
-23 0 -26 -4 -26 -36z"/>
<path d="M8030 4366 c0 -32 3 -36 26 -36 23 0 25 3 22 33 -2 24 -8 33 -25 35
-20 3 -23 -1 -23 -32z"/>
<path d="M7210 4345 c0 -28 4 -35 20 -35 16 0 20 7 20 35 0 28 -4 35 -20 35
-16 0 -20 -7 -20 -35z"/>
<path d="M1760 4274 c0 -31 3 -35 23 -32 17 2 23 11 25 36 3 29 1 32 -22 32
-23 0 -26 -4 -26 -36z"/>
<path d="M8032 4218 c2 -25 8 -33 23 -33 15 0 21 8 23 33 3 29 1 32 -23 32
-24 0 -26 -3 -23 -32z"/>
<path d="M7080 4230 c19 -13 30 -13 30 0 0 6 -10 10 -22 10 -19 0 -20 -2 -8
-10z"/>
<path d="M7180 4220 c0 -16 7 -20 35 -20 28 0 35 4 35 20 0 16 -7 20 -35 20
-28 0 -35 -4 -35 -20z"/>
<path d="M1760 4135 c0 -31 3 -35 25 -35 22 0 25 4 25 35 0 31 -3 35 -25 35
-22 0 -25 -4 -25 -35z"/>
<path d="M8030 4074 c0 -31 3 -35 23 -32 17 2 22 10 23 36 1 27 -2 32 -22 32
-21 0 -24 -5 -24 -36z"/>
<path d="M1760 3996 c0 -32 3 -36 26 -36 23 0 25 3 22 33 -2 24 -8 33 -25 35
-20 3 -23 -1 -23 -32z"/>
<path d="M8030 3935 c0 -31 3 -35 25 -35 22 0 25 4 25 35 0 31 -3 35 -25 35
-22 0 -25 -4 -25 -35z"/>
<path d="M1760 3856 c0 -32 3 -36 26 -36 23 0 25 3 22 33 -2 24 -8 33 -25 35
-20 3 -23 -1 -23 -32z"/>
<path d="M8030 3795 c0 -31 3 -35 25 -35 22 0 25 4 25 35 0 31 -3 35 -25 35
-22 0 -25 -4 -25 -35z"/>
<path d="M1778 3743 c-12 -3 -18 -14 -18 -34 0 -24 4 -29 25 -29 21 0 25 5 25
29 0 33 -6 39 -32 34z"/>
<path d="M8030 3656 c0 -32 3 -36 26 -36 23 0 25 3 22 33 -2 24 -8 33 -25 35
-20 3 -23 -1 -23 -32z"/>
<path d="M1760 3570 c0 -25 4 -30 25 -30 21 0 25 5 25 30 0 25 -4 30 -25 30
-21 0 -25 -5 -25 -30z"/>
<path d="M8037 3544 c-4 -4 -7 -20 -7 -36 0 -23 4 -28 26 -28 23 0 25 3 22 32
-3 31 -25 48 -41 32z"/>
<path d="M1760 3430 c0 -25 4 -30 25 -30 21 0 25 5 25 30 0 25 -4 30 -25 30
-21 0 -25 -5 -25 -30z"/>
<path d="M8036 3402 c-3 -3 -6 -18 -6 -34 0 -23 4 -28 26 -28 22 0 25 4 22 32
-3 29 -27 46 -42 30z"/>
<path d="M1762 3288 c2 -25 8 -33 23 -33 15 0 21 8 23 33 3 29 1 32 -23 32
-24 0 -26 -3 -23 -32z"/>
<path d="M8030 3230 c0 -25 4 -30 25 -30 21 0 25 5 25 30 0 25 -4 30 -25 30
-21 0 -25 -5 -25 -30z"/>
<path d="M4785 3179 c-296 -26 -505 -89 -505 -154 0 -101 423 -175 920 -162
389 11 655 64 706 142 18 27 18 28 -14 56 -58 52 -248 97 -497 119 -140 12
-467 11 -610 -1z"/>
<path d="M1760 3144 c0 -31 3 -35 23 -32 17 2 23 11 25 36 3 29 1 32 -22 32
-23 0 -26 -4 -26 -36z"/>
<path d="M8032 3088 c2 -25 8 -33 23 -33 15 0 21 8 23 33 3 29 1 32 -23 32
-24 0 -26 -3 -23 -32z"/>
<path d="M1760 3010 c0 -25 4 -30 24 -30 30 0 40 13 31 40 -4 13 -15 20 -31
20 -20 0 -24 -5 -24 -30z"/>
<path d="M1890 3006 c0 -23 4 -26 36 -26 31 0 35 3 32 23 -2 17 -11 23 -35 25
-30 3 -33 1 -33 -22z"/>
<path d="M8030 2944 c0 -31 3 -35 23 -32 17 2 23 11 25 36 3 29 1 32 -22 32
-23 0 -26 -4 -26 -36z"/>
<path d="M8030 2804 c0 -31 3 -35 23 -32 17 2 23 11 25 36 3 29 1 32 -22 32
-23 0 -26 -4 -26 -36z"/>
<path d="M3730 1600 l0 -390 -94 0 -94 0 86 -150 c47 -82 90 -146 95 -143 6 3
7 1 4 -5 -9 -14 54 -123 66 -115 6 3 7 1 3 -5 -9 -15 12 -54 24 -47 6 3 8 0 5
-7 -3 -7 14 -45 38 -85 l42 -71 181 311 180 312 -93 3 -93 3 0 389 0 390 -175
0 -175 0 0 -390z"/>
</g>
</svg>
