<?xml version="1.0" standalone="no"?>
<!DOCTYPE svg PUBLIC "-//W3C//DTD SVG 20010904//EN"
 "http://www.w3.org/TR/2001/REC-SVG-20010904/DTD/svg10.dtd">
<svg version="1.0" xmlns="http://www.w3.org/2000/svg"
 width="960.000000pt" height="1095.000000pt" viewBox="0 0 960.000000 1095.000000"
 preserveAspectRatio="xMidYMid meet">

<g transform="translate(0.000000,1095.000000) scale(0.100000,-0.100000)"
fill="#000000" stroke="none">
<path d="M5135 10612 c0 -98 -32 -171 -104 -241 l-51 -48 388 -200 c1006 -520
2274 -1253 3222 -1861 l325 -209 7 43 c15 101 93 211 181 256 22 11 35 23 31
28 -19 18 -694 446 -949 602 -814 497 -1957 1144 -2630 1488 -143 73 -296 152
-340 176 l-80 43 0 -77z"/>
<path d="M4125 10495 c-867 -446 -1988 -1084 -2910 -1655 -175 -109 -737 -469
-749 -480 -4 -5 9 -17 31 -28 89 -46 170 -161 181 -257 l4 -43 227 146 c563
361 865 547 1441 884 697 409 1321 755 1903 1055 207 107 377 198 377 202 0 3
-16 17 -35 29 -72 50 -125 149 -134 252 l-6 65 -330 -170z"/>
<path d="M9452 7770 c-74 -60 -216 -77 -314 -36 l-57 23 5 -46 c8 -92 35 -756
44 -1126 13 -493 13 -1694 0 -2185 -9 -358 -35 -1009 -44 -1126 l-4 -51 56 23
c99 41 238 25 314 -36 l25 -19 12 267 c7 147 16 359 21 472 28 600 31 2482 5
3020 -3 63 -12 268 -20 455 -20 430 -15 388 -43 365z"/>
<path d="M485 7725 c-85 -43 -178 -47 -265 -11 -35 14 -65 24 -66 23 -5 -5
-35 -700 -45 -1042 -14 -483 -14 -1917 0 -2395 9 -318 41 -1091 45 -1097 1 -1
31 9 66 23 88 36 180 32 269 -12 l63 -32 -6 87 c-3 47 -13 237 -21 421 -49
1112 -47 2595 4 3690 10 206 18 375 17 375 -1 0 -28 -13 -61 -30z"/>
<path d="M4610 6729 c-283 -154 -483 -269 -732 -421 l-226 -139 -8 -72 c-9
-94 -9 -1110 0 -1204 l8 -71 51 -33 c301 -189 638 -384 935 -543 l162 -87 163
87 c237 127 564 315 787 452 176 109 196 124 203 154 10 43 13 1173 3 1255 -7
55 -11 64 -39 81 -18 10 -108 66 -202 124 -93 58 -244 148 -335 200 -159 92
-575 318 -582 318 -1 -1 -86 -46 -188 -101z"/>
<path d="M678 2891 c-6 -106 -61 -202 -150 -266 l-28 -20 326 -209 c986 -630
2246 -1358 3259 -1881 l370 -191 6 51 c12 103 89 219 176 264 l34 17 -348 179
c-1017 523 -2354 1295 -3329 1922 l-312 201 -4 -67z"/>
<path d="M8577 2719 c-917 -588 -2303 -1389 -3182 -1839 -132 -67 -286 -147
-343 -177 l-103 -55 29 -18 c86 -52 153 -162 160 -262 2 -32 6 -58 8 -58 12 0
856 443 1109 582 634 348 1412 798 1962 1135 314 192 913 576 913 584 0 4 -13
12 -29 19 -79 32 -166 159 -180 259 l-6 47 -338 -217z"/>
</g>
</svg>
